<?plantuml 1.2026.2beta3?><svg xmlns="http://www.w3.org/2000/svg" xmlns:xlink="http://www.w3.org/1999/xlink" contentStyleType="text/css" data-diagram-type="SEQUENCE" height="836px" preserveAspectRatio="none" style="width:1110px;height:836px;background:#FFFFFF;" version="1.1" viewBox="0 0 1110 836" width="1110px" zoomAndPan="magnify"><defs/><g><g class="participant-lifeline" data-entity-uid="part1" data-qualified-name="Developer" id="part1-lifeline"><g><title>Developer</title><rect fill="#000000" fill-opacity="0.00000" height="674.1875" width="8" x="40.0015" y="81.2969"/><line style="stroke:#181818;stroke-width:0.5;stroke-dasharray:5,5;" x1="44" x2="44" y1="81.2969" y2="755.4844"/></g></g><g class="participant-lifeline" data-entity-uid="part2" data-qualified-name="Reviewer" id="part2-lifeline"><g><title>Reviewer</title><rect fill="#000000" fill-opacity="0.00000" height="674.1875" width="8" x="281.1777" y="81.2969"/><line style="stroke:#181818;stroke-width:0.5;stroke-dasharray:5,5;" x1="284.7036" x2="284.7036" y1="81.2969" y2="755.4844"/></g></g><g class="participant-lifeline" data-entity-uid="part3" data-qualified-name="CI" id="part3-lifeline"><g><title>CI Pipeline</title><rect fill="#000000" fill-opacity="0.00000" height="674.1875" width="8" x="514.0957" y="81.2969"/><line style="stroke:#181818;stroke-width:0.5;stroke-dasharray:5,5;" x1="517.3696" x2="517.3696" y1="81.2969" y2="755.4844"/></g></g><g class="participant-lifeline" data-entity-uid="part4" data-qualified-name="RemoteRepo" id="part4-lifeline"><g><title>Remote Repository .</title><rect fill="#000000" fill-opacity="0.00000" height="674.1875" width="8" x="825.9619" y="81.2969"/><line style="stroke:#181818;stroke-width:0.5;stroke-dasharray:5,5;" x1="829.2939" x2="829.2939" y1="81.2969" y2="755.4844"/></g></g><g class="participant-lifeline" data-entity-uid="part5" data-qualified-name="MainBranch" id="part5-lifeline"><g><title>Remote Repository .</title><rect fill="#000000" fill-opacity="0.00000" height="674.1875" width="8" x="1021.9644" y="81.2969"/><line style="stroke:#181818;stroke-width:0.5;stroke-dasharray:5,5;" x1="1025.2964" x2="1025.2964" y1="81.2969" y2="755.4844"/></g></g><g class="participant participant-head" data-entity-uid="part1" data-qualified-name="Developer" id="part1-head"><text fill="#000000" font-family="sans-serif" font-size="14" lengthAdjust="spacing" textLength="72.0029" x="5" y="77.9951">Developer</text><ellipse cx="44.0015" cy="13.5" fill="#E2E2F0" rx="8" ry="8" style="stroke:#181818;stroke-width:0.5;"/><path d="M44.0015,21.5 L44.0015,48.5 M31.0015,29.5 L57.0015,29.5 M44.0015,48.5 L31.0015,63.5 M44.0015,48.5 L57.0015,63.5" fill="none" style="stroke:#181818;stroke-width:0.5;"/></g><g class="participant participant-tail" data-entity-uid="part1" data-qualified-name="Developer" id="part1-tail"><text fill="#000000" font-family="sans-serif" font-size="14" lengthAdjust="spacing" textLength="72.0029" x="5" y="767.4795">Developer</text><ellipse cx="44.0015" cy="779.2813" fill="#E2E2F0" rx="8" ry="8" style="stroke:#181818;stroke-width:0.5;"/><path d="M44.0015,787.2813 L44.0015,814.2813 M31.0015,795.2813 L57.0015,795.2813 M44.0015,814.2813 L31.0015,829.2813 M44.0015,814.2813 L57.0015,829.2813" fill="none" style="stroke:#181818;stroke-width:0.5;"/></g><g class="participant participant-head" data-entity-uid="part2" data-qualified-name="Reviewer" id="part2-head"><text fill="#000000" font-family="sans-serif" font-size="14" lengthAdjust="spacing" textLength="64.9482" x="249.7036" y="77.9951">Reviewer</text><ellipse cx="285.1777" cy="13.5" fill="#E2E2F0" rx="8" ry="8" style="stroke:#181818;stroke-width:0.5;"/><path d="M285.1777,21.5 L285.1777,48.5 M272.1777,29.5 L298.1777,29.5 M285.1777,48.5 L272.1777,63.5 M285.1777,48.5 L298.1777,63.5" fill="none" style="stroke:#181818;stroke-width:0.5;"/></g><g class="participant participant-tail" data-entity-uid="part2" data-qualified-name="Reviewer" id="part2-tail"><text fill="#000000" font-family="sans-serif" font-size="14" lengthAdjust="spacing" textLength="64.9482" x="249.7036" y="767.4795">Reviewer</text><ellipse cx="285.1777" cy="779.2813" fill="#E2E2F0" rx="8" ry="8" style="stroke:#181818;stroke-width:0.5;"/><path d="M285.1777,787.2813 L285.1777,814.2813 M272.1777,795.2813 L298.1777,795.2813 M285.1777,814.2813 L272.1777,829.2813 M285.1777,814.2813 L298.1777,829.2813" fill="none" style="stroke:#181818;stroke-width:0.5;"/></g><g class="participant participant-head" data-entity-uid="part3" data-qualified-name="CI" id="part3-head"><rect fill="#E2E2F0" height="30.2969" rx="2.5" ry="2.5" style="stroke:#181818;stroke-width:0.5;" width="87.4521" x="474.3696" y="50"/><text fill="#000000" font-family="sans-serif" font-size="14" lengthAdjust="spacing" textLength="73.4521" x="481.3696" y="69.9951">CI Pipeline</text></g><g class="participant participant-tail" data-entity-uid="part3" data-qualified-name="CI" id="part3-tail"><rect fill="#E2E2F0" height="30.2969" rx="2.5" ry="2.5" style="stroke:#181818;stroke-width:0.5;" width="87.4521" x="474.3696" y="754.4844"/><text fill="#000000" font-family="sans-serif" font-size="14" lengthAdjust="spacing" textLength="73.4521" x="481.3696" y="774.4795">CI Pipeline</text></g><g class="participant participant-head" data-entity-uid="part4" data-qualified-name="RemoteRepo" id="part4-head"><rect fill="#E2E2F0" height="46.5938" rx="2.5" ry="2.5" style="stroke:#181818;stroke-width:0.5;" width="157.3359" x="751.2939" y="33.7031"/><text fill="#000000" font-family="sans-serif" font-size="14" lengthAdjust="spacing" textLength="143.3359" x="758.2939" y="53.6982">Remote Repository :</text><text fill="#000000" font-family="sans-serif" font-size="14" lengthAdjust="spacing" textLength="107.8096" x="776.0571" y="69.9951">Feature Branch</text></g><g class="participant participant-tail" data-entity-uid="part4" data-qualified-name="RemoteRepo" id="part4-tail"><rect fill="#E2E2F0" height="46.5938" rx="2.5" ry="2.5" style="stroke:#181818;stroke-width:0.5;" width="157.3359" x="751.2939" y="754.4844"/><text fill="#000000" font-family="sans-serif" font-size="14" lengthAdjust="spacing" textLength="143.3359" x="758.2939" y="774.4795">Remote Repository :</text><text fill="#000000" font-family="sans-serif" font-size="14" lengthAdjust="spacing" textLength="107.8096" x="776.0571" y="790.7764">Feature Branch</text></g><g class="participant participant-head" data-entity-uid="part5" data-qualified-name="MainBranch" id="part5-head"><rect fill="#E2E2F0" height="46.5938" rx="2.5" ry="2.5" style="stroke:#181818;stroke-width:0.5;" width="157.3359" x="947.2964" y="33.7031"/><text fill="#000000" font-family="sans-serif" font-size="14" lengthAdjust="spacing" textLength="143.3359" x="954.2964" y="53.6982">Remote Repository :</text><text fill="#000000" font-family="sans-serif" font-size="14" lengthAdjust="spacing" textLength="87.2539" x="982.3374" y="69.9951">Main Branch</text></g><g class="participant participant-tail" data-entity-uid="part5" data-qualified-name="MainBranch" id="part5-tail"><rect fill="#E2E2F0" height="46.5938" rx="2.5" ry="2.5" style="stroke:#181818;stroke-width:0.5;" width="157.3359" x="947.2964" y="754.4844"/><text fill="#000000" font-family="sans-serif" font-size="14" lengthAdjust="spacing" textLength="143.3359" x="954.2964" y="774.4795">Remote Repository :</text><text fill="#000000" font-family="sans-serif" font-size="14" lengthAdjust="spacing" textLength="87.2539" x="982.3374" y="790.7764">Main Branch</text></g><g class="message" data-entity-1="part1" data-entity-2="part1" id="msg1"><line style="stroke:#181818;stroke-width:1;" x1="44.0015" x2="86.0015" y1="127.5625" y2="127.5625"/><line style="stroke:#181818;stroke-width:1;" x1="86.0015" x2="86.0015" y1="127.5625" y2="140.5625"/><line style="stroke:#181818;stroke-width:1;" x1="45.0015" x2="86.0015" y1="140.5625" y2="140.5625"/><polygon fill="#181818" points="55.0015,136.5625,45.0015,140.5625,55.0015,144.5625,51.0015,140.5625" style="stroke:#181818;stroke-width:1;"/><text fill="#000000" font-family="sans-serif" font-size="13" lengthAdjust="spacing" textLength="227.1763" x="51.0015" y="107.3638">Cr&#233;e une nouvelle feature branche</text><text fill="#000000" font-family="sans-serif" font-size="13" lengthAdjust="spacing" textLength="209.2949" x="51.0015" y="122.4966">&#224; partir de la branche principale</text></g><g class="message" data-entity-1="part1" data-entity-2="part1" id="msg2"><line style="stroke:#181818;stroke-width:1;" x1="44.0015" x2="86.0015" y1="169.6953" y2="169.6953"/><line style="stroke:#181818;stroke-width:1;" x1="86.0015" x2="86.0015" y1="169.6953" y2="182.6953"/><line style="stroke:#181818;stroke-width:1;" x1="45.0015" x2="86.0015" y1="182.6953" y2="182.6953"/><polygon fill="#181818" points="55.0015,178.6953,45.0015,182.6953,55.0015,186.6953,51.0015,182.6953" style="stroke:#181818;stroke-width:1;"/><text fill="#000000" font-family="sans-serif" font-size="13" lengthAdjust="spacing" textLength="150.4585" x="51.0015" y="164.6294">Travaille sur sa feature</text></g><g class="message" data-entity-1="part1" data-entity-2="part4" id="msg3"><polygon fill="#181818" points="817.9619,222.9609,827.9619,226.9609,817.9619,230.9609,821.9619,226.9609" style="stroke:#181818;stroke-width:1;"/><line style="stroke:#181818;stroke-width:1;" x1="44.0015" x2="823.9619" y1="226.9609" y2="226.9609"/><text fill="#000000" font-family="sans-serif" font-size="13" lengthAdjust="spacing" textLength="159.6816" x="51.0015" y="206.7622">Pousse les modifications</text><text fill="#000000" font-family="sans-serif" font-size="13" lengthAdjust="spacing" textLength="150.5537" x="51.0015" y="221.895">sur la branche distante</text></g><g class="message" data-entity-1="part4" data-entity-2="part3" id="msg4"><polygon fill="#181818" points="529.0957,252.0938,519.0957,256.0938,529.0957,260.0938,525.0957,256.0938" style="stroke:#181818;stroke-width:1;"/><line style="stroke:#181818;stroke-width:1;" x1="523.0957" x2="828.9619" y1="256.0938" y2="256.0938"/><text fill="#000000" font-family="sans-serif" font-size="13" lengthAdjust="spacing" textLength="287.8662" x="535.0957" y="251.0278">D&#233;clenche le pipeline d'int&#233;gration continue</text></g><g class="message" data-entity-1="part3" data-entity-2="part1" id="msg5"><polygon fill="#181818" points="55.0015,296.3594,45.0015,300.3594,55.0015,304.3594,51.0015,300.3594" style="stroke:#181818;stroke-width:1;"/><line style="stroke:#181818;stroke-width:1;" x1="49.0015" x2="517.0957" y1="300.3594" y2="300.3594"/><text fill="#000000" font-family="sans-serif" font-size="13" lengthAdjust="spacing" textLength="113.9023" x="61.0015" y="280.1606">Pipeline &#233;choue ?</text><text fill="#000000" font-family="sans-serif" font-size="13" lengthAdjust="spacing" textLength="121.272" x="61.0015" y="295.2935">Corrige les erreurs</text></g><g class="message" data-entity-1="part1" data-entity-2="part4" id="msg6"><polygon fill="#181818" points="817.9619,325.4922,827.9619,329.4922,817.9619,333.4922,821.9619,329.4922" style="stroke:#181818;stroke-width:1;"/><line style="stroke:#181818;stroke-width:1;" x1="44.0015" x2="823.9619" y1="329.4922" y2="329.4922"/><text fill="#000000" font-family="sans-serif" font-size="13" lengthAdjust="spacing" textLength="225.9321" x="51.0015" y="324.4263">Pousse les nouvelles modifications</text></g><g class="message" data-entity-1="part4" data-entity-2="part3" id="msg7"><polygon fill="#181818" points="529.0957,354.625,519.0957,358.625,529.0957,362.625,525.0957,358.625" style="stroke:#181818;stroke-width:1;"/><line style="stroke:#181818;stroke-width:1;" x1="523.0957" x2="828.9619" y1="358.625" y2="358.625"/><text fill="#000000" font-family="sans-serif" font-size="13" lengthAdjust="spacing" textLength="212.3989" x="535.0957" y="353.5591">D&#233;clenche &#224; nouveau le pipeline</text></g><g class="message" data-entity-1="part3" data-entity-2="part1" id="msg8"><polygon fill="#181818" points="55.0015,383.7578,45.0015,387.7578,55.0015,391.7578,51.0015,387.7578" style="stroke:#181818;stroke-width:1;"/><line style="stroke:#181818;stroke-width:1;" x1="49.0015" x2="517.0957" y1="387.7578" y2="387.7578"/><text fill="#000000" font-family="sans-serif" font-size="13" lengthAdjust="spacing" textLength="94.0342" x="61.0015" y="382.6919">Pipeline r&#233;ussi</text></g><g class="message" data-entity-1="part1" data-entity-2="part4" id="msg9"><polygon fill="#181818" points="817.9619,428.0234,827.9619,432.0234,817.9619,436.0234,821.9619,432.0234" style="stroke:#181818;stroke-width:1;"/><line style="stroke:#181818;stroke-width:1;" x1="44.0015" x2="823.9619" y1="432.0234" y2="432.0234"/><text fill="#000000" font-family="sans-serif" font-size="13" lengthAdjust="spacing" textLength="83.4082" x="51.0015" y="411.8247">Cr&#233;e une MR</text><text fill="#000000" font-family="sans-serif" font-size="13" lengthAdjust="spacing" textLength="151.8931" x="51.0015" y="426.9575">et assigne un Reviewer</text></g><g class="message" data-entity-1="part2" data-entity-2="part4" id="msg10"><polygon fill="#181818" points="817.9619,457.1563,827.9619,461.1563,817.9619,465.1563,821.9619,461.1563" style="stroke:#181818;stroke-width:1;"/><line style="stroke:#181818;stroke-width:1;" x1="285.1777" x2="823.9619" y1="461.1563" y2="461.1563"/><text fill="#000000" font-family="sans-serif" font-size="13" lengthAdjust="spacing" textLength="209.3774" x="292.1777" y="456.0903">Fait un pull de la feature branch</text></g><g class="message" data-entity-1="part2" data-entity-2="part2" id="msg11"><line style="stroke:#181818;stroke-width:1;" x1="285.1777" x2="327.1777" y1="490.2891" y2="490.2891"/><line style="stroke:#181818;stroke-width:1;" x1="327.1777" x2="327.1777" y1="490.2891" y2="503.2891"/><line style="stroke:#181818;stroke-width:1;" x1="286.1777" x2="327.1777" y1="503.2891" y2="503.2891"/><polygon fill="#181818" points="296.1777,499.2891,286.1777,503.2891,296.1777,507.2891,292.1777,503.2891" style="stroke:#181818;stroke-width:1;"/><text fill="#000000" font-family="sans-serif" font-size="13" lengthAdjust="spacing" textLength="218.918" x="292.1777" y="485.2231">Fait une review des modifications</text></g><g class="message" data-entity-1="part2" data-entity-2="part1" id="msg12"><polygon fill="#181818" points="55.0015,528.4219,45.0015,532.4219,55.0015,536.4219,51.0015,532.4219" style="stroke:#181818;stroke-width:1;"/><line style="stroke:#181818;stroke-width:1;" x1="49.0015" x2="284.1777" y1="532.4219" y2="532.4219"/><text fill="#000000" font-family="sans-serif" font-size="13" lengthAdjust="spacing" textLength="85.2998" x="61.0015" y="527.356">Remarques ?</text></g><g class="message" data-entity-1="part1" data-entity-2="part4" id="msg13"><polygon fill="#181818" points="817.9619,572.6875,827.9619,576.6875,817.9619,580.6875,821.9619,576.6875" style="stroke:#181818;stroke-width:1;"/><line style="stroke:#181818;stroke-width:1;" x1="44.0015" x2="823.9619" y1="576.6875" y2="576.6875"/><text fill="#000000" font-family="sans-serif" font-size="13" lengthAdjust="spacing" textLength="121.272" x="51.0015" y="556.4888">Corrige les erreurs</text><text fill="#000000" font-family="sans-serif" font-size="13" lengthAdjust="spacing" textLength="211.7959" x="51.0015" y="571.6216">et pousse de nouveaux commits</text></g><g class="message" data-entity-1="part4" data-entity-2="part3" id="msg14"><polygon fill="#181818" points="529.0957,601.8203,519.0957,605.8203,529.0957,609.8203,525.0957,605.8203" style="stroke:#181818;stroke-width:1;"/><line style="stroke:#181818;stroke-width:1;" x1="523.0957" x2="828.9619" y1="605.8203" y2="605.8203"/><text fill="#000000" font-family="sans-serif" font-size="13" lengthAdjust="spacing" textLength="212.3989" x="535.0957" y="600.7544">D&#233;clenche &#224; nouveau le pipeline</text></g><g class="message" data-entity-1="part3" data-entity-2="part1" id="msg15"><polygon fill="#181818" points="55.0015,630.9531,45.0015,634.9531,55.0015,638.9531,51.0015,634.9531" style="stroke:#181818;stroke-width:1;"/><line style="stroke:#181818;stroke-width:1;" x1="49.0015" x2="517.0957" y1="634.9531" y2="634.9531"/><text fill="#000000" font-family="sans-serif" font-size="13" lengthAdjust="spacing" textLength="94.0342" x="61.0015" y="629.8872">Pipeline r&#233;ussi</text></g><g class="message" data-entity-1="part2" data-entity-2="part4" id="msg16"><polygon fill="#181818" points="817.9619,660.0859,827.9619,664.0859,817.9619,668.0859,821.9619,664.0859" style="stroke:#181818;stroke-width:1;"/><line style="stroke:#181818;stroke-width:1;" x1="285.1777" x2="823.9619" y1="664.0859" y2="664.0859"/><text fill="#000000" font-family="sans-serif" font-size="13" lengthAdjust="spacing" textLength="102.7178" x="292.1777" y="659.02">Approuve la MR</text></g><g class="message" data-entity-1="part1" data-entity-2="part4" id="msg17"><polygon fill="#181818" points="817.9619,689.2188,827.9619,693.2188,817.9619,697.2188,821.9619,693.2188" style="stroke:#181818;stroke-width:1;"/><line style="stroke:#181818;stroke-width:1;" x1="44.0015" x2="823.9619" y1="693.2188" y2="693.2188"/><text fill="#000000" font-family="sans-serif" font-size="13" lengthAdjust="spacing" textLength="182.8379" x="51.0015" y="688.1528">Demande la fusion de la MR</text></g><g class="message" data-entity-1="part4" data-entity-2="part5" id="msg18"><polygon fill="#181818" points="1013.9644,733.4844,1023.9644,737.4844,1013.9644,741.4844,1017.9644,737.4844" style="stroke:#181818;stroke-width:1;"/><line style="stroke:#181818;stroke-width:1;" x1="829.9619" x2="1019.9644" y1="737.4844" y2="737.4844"/><text fill="#000000" font-family="sans-serif" font-size="13" lengthAdjust="spacing" textLength="98.6235" x="836.9619" y="717.2856">Fusionne la MR</text><text fill="#000000" font-family="sans-serif" font-size="13" lengthAdjust="spacing" textLength="172.0024" x="836.9619" y="732.4185">avec la branche principale</text></g><?plantuml-src jLD1JiCm4Bpd5IikdFX03o18XTH39LHnpCKaIrafNPkrNU0tNFkEVeorav2cq8eBjzZUcPsPtPWwM84vRh6r3gKm-Rp2BU6R7fsHG3Kvmm4koWKyaCEM62_0U2WNq_SLRcn01JlhIMa-O5RnFPeG1U5E3DSl6TVLfR8_u9U6-12SpjsnABvbmzNrw646fUnt294Hs4QzRH6UUnbF6OeLxpyXDnTe45epF80JuYIenPFqZsAsXXAhZmBU3EHJmEXo1WysUgzjqCF6DlHCjGbasLUS60wwD-I3Pe75Y4vSvM86y_skRZ5NQMVN3mAQI-AmtwqbCq9jEH17B7HOKzN3w41vNcn4kAcuj2AqxeIX24RnVp8nn7favxngJJpZJ3mqS4QeJb4xKd5QqZZevQfY3BeWdjQShiOT7ZwEmVU6GYfqiMtx9PXkoH6o-_x6gRvyfT2VCOou0sFQtCXhrFARCvP-ZYGxSrtw3GuXlkkiDniA_vRwgTnkdPF4c09RhauxcQjTxdEDFYrdCs2cYiTVMiFDbTmNLcosMF_-Utu1?></g></svg>